{"title":"Blind - Video Days [1991][skateboarding] DVDrip.avi","uid":4678668,"size":734709760,"categoryP":"video","categoryS":"movies","magnet":"?xt=urn:btih:f84891ed9e2c105f369ca9443acbe037e326ff25&amp;dn=Blind+-+Video+Days+%5B1991%5D%5Bskateboarding%5D+DVDrip.avi&amp;tr=udp%3A%2F%2Ftracker.openbittorrent.com%3A80&amp;tr=udp%3A%2F%2Fopen.demonii.com%3A1337&amp;tr=udp%3A%2F%2Ftracker.coppersurfer.tk%3A6969&amp;tr=udp%3A%2F%2Fexodus.desync.com%3A6969","seeders":1,"leechers":0,"uploader":"highateus","files":1,"time":1232993085,"description":"BLIND - VIDEO DAYS (1991)\n\nclassic skate film now on DVD re-issue.\nstarring\nMark Gonzales, Jason Lee, Guy Mariano, Rudy Johnson and Jordan Richter.\n\nif you skate, then it's mandatory to watch this video.\nthis a great video from the street skating revolution happening just after\nthe death of 80's vert skating.\nalot of people think it started with 1989's H-Street - Hokus Pokus;\nwell maybe it might have, but this video seems to get mentioned\nmore than any other.\n\nGonzales' style, Jason Lee's 360 flips, Mariano's lines, Rudy's tech and\nRichter's miniramp attack... it never gets old.\n\nand, yeah, that's Jason Lee, the famous actor, for those who care.\nMallrats, Enemy of the State, Almost Famous,\nAlvin and the Chipmunks... alotta flicks.\nthat dude even did voice work in &quot;The Incredibles&quot;. hahaha\nyessssir.\n\n\n\nbookmark highateus, check for goods and please help SEED.\nthanks\n\n\nGeneral\n\nComplete name                    : Blind - Video Days [1991] DVDrip.avi\nFormat                           : AVI\nFormat/Info                      : Audio Video Interleave\nFile size                        : 701 MiB\nDuration                         : 23mn 50s\nOverall bit rate                 : 4107 Kbps\n\nVideo\n\nFormat                           : MPEG-4 Visual\nFormat profile                   : Streaming Video@L1\nFormat settings, BVOP            : Yes\nFormat settings, QPel            : No\nFormat settings, GMC             : No warppoints\nFormat settings, Matrix          : Default\nMuxing mode                      : Packed bitstream\nCodec ID                         : XVID\nCodec ID/Hint                    : XviD\nDuration                         : 23mn 50s\nBit rate                         : 3904 Kbps\nWidth                            : 720 pixels\nHeight                           : 480 pixels\nDisplay aspect ratio             : 1.500\nFrame rate                       : 29.970 fps\nStandard                         : NTSC\nResolution                       : 24 bits\nColorimetry                      : 4:2:0\nScan type                        : Progressive\nBits/(Pixel*Frame)               : 0.377\nStream size                      : 666 MiB (95%)\nWriting library                  : XviD 1.1.2 (UTC 2006-11-01)\n\nAudio\n\nFormat                           : MPEG Audio\nFormat version                   : Version 1\nFormat profile                   : Layer 3\nCodec ID                         : 55\nCodec ID/Hint                    : MP3\nDuration                         : 23mn 50s\nBit rate mode                    : Constant\nBit rate                         : 192 Kbps\nChannel(s)                       : 2 channels\nSampling rate                    : 44.1 KHz\nResolution                       : 16 bits\nVideo delay                      : 26ms\nStream size                      : 32.8 MiB (5%)\nAlignment                        : Split accross interleaves\nInterleave, duration             : 33 ms (1.00 video frame)\nTitle                            : Audio Stream\nWriting library                  : LAME3.92\n\n\n\n\n","torrent":{"xt":"urn:btih:f84891ed9e2c105f369ca9443acbe037e326ff25","amp;dn":"Blind+-+Video+Days+%5B1991%5D%5Bskateboarding%5D+DVDrip.avi","amp;tr":["udp%3A%2F%2Ftracker.openbittorrent.com%3A80","udp%3A%2F%2Fopen.demonii.com%3A1337","udp%3A%2F%2Ftracker.coppersurfer.tk%3A6969","udp%3A%2F%2Fexodus.desync.com%3A6969"],"infoHash":"f84891ed9e2c105f369ca9443acbe037e326ff25","infoHashBuffer":{"type":"Buffer","data":[248,72,145,237,158,44,16,95,54,156,169,68,58,203,224,55,227,38,255,37]},"announce":[],"urlList":[]}}